<svg width="36.232mm" height="16.617mm" fill-rule="evenodd" version="1.1" viewBox="0 0 137 59.5" xmlns="http://www.w3.org/2000/svg" xmlns:xlink="http://www.w3.org/1999/xlink">
        <defs>
          <pattern id="a" width="4.1" height="4.1" patternUnits="userSpaceOnUse">
            <path d="m0 0v4.09h0.4v-0.85l0.42 0.381v0.469h0.4v-0.0996l0.109 0.0996h0.711v-0.799l0.42 0.379v0.42h0.398v-0.0488l0.0547 0.0488h0.766v-0.75l0.42 0.381v0.369h0.4v-4.09h-0.4v0.311l-0.334-0.311h-0.598l0.111 0.0996v0.9l-0.42-0.379v-0.621h-0.398v0.25l-0.277-0.25h-0.6l0.0566 0.0508v0.9l-0.42-0.381v-0.57h-0.4v0.201l-0.223-0.201zm0.4 0.359 0.42 0.381v0.9l-0.42-0.381zm1.64 0.0508 0.42 0.391v0.889l-0.42-0.379zm1.64 0.0605 0.42 0.379v0.891l-0.42-0.381zm-2.46 0.639 0.42 0.381v0.9l-0.42-0.381zm1.64 0.0508 0.42 0.381v0.898l-0.42-0.379zm-2.46 0.641 0.42 0.379v0.9l-0.42-0.379zm1.64 0.0488 0.42 0.381v0.9l-0.42-0.381zm1.64 0.0508 0.42 0.379v0.9l-0.42-0.379zm-2.46 0.65 0.42 0.379v0.9l-0.42-0.379zm1.64 0.0488 0.42 0.381v0.9l-0.42-0.381z" fill="#949392"></path>
          </pattern>
          <g id="pin">
            <path fill="#c6bf95" d="m29 4.6c0.382 0 0.748-0.152 1.02-0.422s0.422-0.636 0.422-1.02v-1e-3c0-0.382-0.152-0.748-0.422-1.02s-0.636-0.422-1.02-0.422h-26.1c-0.234 0-0.423 0.189-0.423 0.423v2.04c0 0.234 0.189 0.423 0.423 0.423h26.1z"></path>
            <rect x="0" y="0" width="6.9" height="6.9"></rect>
          </g>
        </defs>

        <!-- Board -->
        <path d="m113 0h-113v59.5h113zm-1.6 53.2c0 2.62-2.12 4.74-4.74 4.74s-4.74-2.12-4.74-4.74c0-2.62 2.12-4.74 4.74-4.74s4.74 2.12 4.74 4.74zm-110 0c0 2.62 2.12 4.74 4.74 4.74 2.62 0 4.74-2.12 4.74-4.74 0-2.62-2.12-4.74-4.74-4.74-2.62 0-4.74 2.12-4.74 4.74zm105-51.6c2.62 0 4.74 2.12 4.74 4.74 0 2.62-2.12 4.74-4.74 4.74s-4.74-2.12-4.74-4.74c0-2.62 2.12-4.74 4.74-4.74zm-101 0c-2.62 0-4.74 2.12-4.74 4.74 0 2.62 2.12 4.74 4.74 4.74 2.62 0 4.74-2.12 4.74-4.74 0-2.62-2.12-4.74-4.74-4.74z" fill="#0664af"></path>

        <!-- Pins -->
        <use xlink:href="#pin" x="107" y="12"></use>
        <use xlink:href="#pin" x="107" y="21.3"></use>
        <use xlink:href="#pin" x="107" y="31.1"></use>
        <use xlink:href="#pin" x="107" y="40.9"></use>

        <!-- Sensor -->
        <circle cx="47.7" cy="29.8" r="31.2" fill="none" stroke="#fff" stroke-width=".4px"></circle>
        <circle cx="47.7" cy="29.8" r="28.8" fill="#dedede"></circle>
        <circle cx="47.7" cy="29.8" r="25.8" fill="#d0ccc4"></circle>
        <circle cx="47.7" cy="29.8" r="21.4" fill="#bab3ad"></circle>
        <circle cx="47.7" cy="29.8" r="21.4" fill="url(#a)"></circle>

        <text fill="#ffffff" font-family="sans-serif" font-size="3.72px">
          <tspan x="94.656" y="16.729">AOUT</tspan>
          <tspan x="94.656" y="26.098">DOUT</tspan>
          <tspan x="94.656" y="35.911">GND</tspan>
          <tspan x="94.656" y="45.696">VCC</tspan>
        </text>

        <!-- LEDs -->

        <rect style="opacity:1;fill:#999999;stroke-width:1.5747;paint-order:stroke markers fill" id="rect17" width="8.5262499" height="3.8281121" x="81.321793" y="5.8179226"></rect>
        <rect style="opacity:1;fill:#e6e6e6;stroke-width:2.05589;paint-order:stroke markers fill" id="rect18" width="4.8444595" height="3.8281121" x="83.162689" y="5.8179226"></rect>
        <!--?lit$169001558$-->false
        <rect style="fill:#999999;stroke-width:1.5747;paint-order:stroke markers fill" id="rect17-9" width="8.5262499" height="3.8281121" x="81.018036" y="48.700188"></rect>
        <rect style="fill:#e6e6e6;stroke-width:2.05589;paint-order:stroke markers fill" id="rect18-0" width="4.8444595" height="3.8281121" x="82.858932" y="48.700188"></rect>
        <!--?lit$169001558$-->false
        <text fill="#ffffff" font-family="sans-serif" font-size="3px">
          <tspan x="80.213432" y="4.7265162">PWR LED</tspan>
          <tspan x="80.463821" y="55.852409">D0 LED</tspan>
        </text>
      </svg>
