<?xml version="1.0" encoding="UTF-8"?>
<!--
  Phosphor Icons "ArrowClockwise" (regular weight), from
  https://github.com/phosphor-icons/core (MIT License).
  Used in web/shell/index.html (rotate-selected-element button); vendored
  here as the canonical source (same convention as play.svg etc.) since
  it's inlined directly into that button's markup for currentColor
  theming, not fetched at runtime.
-->
<svg xmlns="http://www.w3.org/2000/svg" viewBox="0 0 256 256" fill="currentColor"><path d="M240,56v48a8,8,0,0,1-8,8H184a8,8,0,0,1,0-16H211.4L184.81,71.64l-.25-.24a80,80,0,1,0-1.67,114.78,8,8,0,0,1,11,11.63A95.44,95.44,0,0,1,128,224h-1.32A96,96,0,1,1,195.75,60L224,85.8V56a8,8,0,1,1,16,0Z"/></svg>
