<?xml version="1.0" encoding="UTF-8"?>
<!--
  Phosphor Icons "Pause" (regular weight), from
  https://github.com/phosphor-icons/core (MIT License).
  Used in web/shell/index.html (Pause button); vendored here as the
  canonical source (same convention as assets/boards/) since it's inlined
  directly into that button's markup for currentColor theming, not
  fetched at runtime.
-->
<svg xmlns="http://www.w3.org/2000/svg" viewBox="0 0 256 256" fill="currentColor"><path d="M200,32H160a16,16,0,0,0-16,16V208a16,16,0,0,0,16,16h40a16,16,0,0,0,16-16V48A16,16,0,0,0,200,32Zm0,176H160V48h40ZM96,32H56A16,16,0,0,0,40,48V208a16,16,0,0,0,16,16H96a16,16,0,0,0,16-16V48A16,16,0,0,0,96,32Zm0,176H56V48H96Z"/></svg>
