<?xml version="1.0" encoding="UTF-8"?>
<!--
  Phosphor Icons "UploadSimple" (regular weight), from
  https://github.com/phosphor-icons/core (MIT License).
  Used in web/shell/index.html (Load Firmware button); vendored here as
  the canonical source (same convention as play.svg etc.) since it's
  inlined directly into that button's markup for currentColor theming,
  not fetched at runtime.
-->
<svg xmlns="http://www.w3.org/2000/svg" viewBox="0 0 256 256" fill="currentColor"><path d="M224,144v64a8,8,0,0,1-8,8H40a8,8,0,0,1-8-8V144a8,8,0,0,1,16,0v56H208V144a8,8,0,0,1,16,0ZM93.66,77.66,120,51.31V144a8,8,0,0,0,16,0V51.31l26.34,26.35a8,8,0,0,0,11.32-11.32l-40-40a8,8,0,0,0-11.32,0l-40,40A8,8,0,0,0,93.66,77.66Z"/></svg>
